<svg width="32" height="32" data-name="Layer 1" xmlns="http://www.w3.org/2000/svg">
    <path d="M22 30h-5a7.008 7.008 0 0 1-7-7 6.683 6.683 0 0 1 2.024-4.697A6.793 6.793 0 0 0 10.01 18C5.043 18.047 4 24.551 4 30H2c0-11.51 4.345-13.966 7.99-14a10.072 10.072 0 0 1 4.48 1.117 1 1 0 0 1 .06 1.73A4.877 4.877 0 0 0 17 28h5ZM17 8h2v8h-2z" fill="#71A3F4"/>
    <path d="M28 5.414 26.586 4l-2.262 2.262A9.95 9.95 0 0 0 19 4.05V2h-2v2.05A10.013 10.013 0 0 0 8 14h2a8 8 0 1 1 8 8v2a9.993 9.993 0 0 0 7.738-16.324Z" fill="#71A3F4"/><path data-name="&lt;Transparent Rectangle&gt;" style="fill:none" d="M0 0h32v32H0z"/>
</svg>