<svg id="visual" viewBox="0 0 900 600" width="900" height="600" xmlns="http://www.w3.org/2000/svg" xmlns:xlink="http://www.w3.org/1999/xlink" version="1.1"><rect x="0" y="0" width="900" height="600" fill="#CBF7F2"></rect><path d="M0 3L13.7 25.5C27.3 48 54.7 93 82 96.2C109.3 99.3 136.7 60.7 163.8 48C191 35.3 218 48.7 245.2 72C272.3 95.3 299.7 128.7 327 166.8C354.3 205 381.7 248 409 269.7C436.3 291.3 463.7 291.7 491 258.5C518.3 225.3 545.7 158.7 573 120.2C600.3 81.7 627.7 71.3 654.8 78C682 84.7 709 108.3 736.2 154C763.3 199.7 790.7 267.3 818 255.3C845.3 243.3 872.7 151.7 886.3 105.8L900 60L900 601L886.3 601C872.7 601 845.3 601 818 601C790.7 601 763.3 601 736.2 601C709 601 682 601 654.8 601C627.7 601 600.3 601 573 601C545.7 601 518.3 601 491 601C463.7 601 436.3 601 409 601C381.7 601 354.3 601 327 601C299.7 601 272.3 601 245.2 601C218 601 191 601 163.8 601C136.7 601 109.3 601 82 601C54.7 601 27.3 601 13.7 601L0 601Z" fill="#6da0e8"></path><path d="M0 364L13.7 322.2C27.3 280.3 54.7 196.7 82 159.8C109.3 123 136.7 133 163.8 157.3C191 181.7 218 220.3 245.2 222C272.3 223.7 299.7 188.3 327 159.2C354.3 130 381.7 107 409 141C436.3 175 463.7 266 491 291.2C518.3 316.3 545.7 275.7 573 272.3C600.3 269 627.7 303 654.8 299C682 295 709 253 736.2 246.7C763.3 240.3 790.7 269.7 818 264C845.3 258.3 872.7 217.7 886.3 197.3L900 177L900 601L886.3 601C872.7 601 845.3 601 818 601C790.7 601 763.3 601 736.2 601C709 601 682 601 654.8 601C627.7 601 600.3 601 573 601C545.7 601 518.3 601 491 601C463.7 601 436.3 601 409 601C381.7 601 354.3 601 327 601C299.7 601 272.3 601 245.2 601C218 601 191 601 163.8 601C136.7 601 109.3 601 82 601C54.7 601 27.3 601 13.7 601L0 601Z" fill="#5fa9ed"></path><path d="M0 245L13.7 235.5C27.3 226 54.7 207 82 201.8C109.3 196.7 136.7 205.3 163.8 240C191 274.7 218 335.3 245.2 325.3C272.3 315.3 299.7 234.7 327 231.5C354.3 228.3 381.7 302.7 409 317.5C436.3 332.3 463.7 287.7 491 262C518.3 236.3 545.7 229.7 573 223.8C600.3 218 627.7 213 654.8 234.5C682 256 709 304 736.2 298.7C763.3 293.3 790.7 234.7 818 234.7C845.3 234.7 872.7 293.3 886.3 322.7L900 352L900 601L886.3 601C872.7 601 845.3 601 818 601C790.7 601 763.3 601 736.2 601C709 601 682 601 654.8 601C627.7 601 600.3 601 573 601C545.7 601 518.3 601 491 601C463.7 601 436.3 601 409 601C381.7 601 354.3 601 327 601C299.7 601 272.3 601 245.2 601C218 601 191 601 163.8 601C136.7 601 109.3 601 82 601C54.7 601 27.3 601 13.7 601L0 601Z" fill="#50b1f0"></path><path d="M0 195L13.7 188.3C27.3 181.7 54.7 168.3 82 166.7C109.3 165 136.7 175 163.8 205.7C191 236.3 218 287.7 245.2 286.5C272.3 285.3 299.7 231.7 327 218.8C354.3 206 381.7 234 409 269.7C436.3 305.3 463.7 348.7 491 334.8C518.3 321 545.7 250 573 218.8C600.3 187.7 627.7 196.3 654.8 210C682 223.7 709 242.3 736.2 253.3C763.3 264.3 790.7 267.7 818 294C845.3 320.3 872.7 369.7 886.3 394.3L900 419L900 601L886.3 601C872.7 601 845.3 601 818 601C790.7 601 763.3 601 736.2 601C709 601 682 601 654.8 601C627.7 601 600.3 601 573 601C545.7 601 518.3 601 491 601C463.7 601 436.3 601 409 601C381.7 601 354.3 601 327 601C299.7 601 272.3 601 245.2 601C218 601 191 601 163.8 601C136.7 601 109.3 601 82 601C54.7 601 27.3 601 13.7 601L0 601Z" fill="#42b9f1"></path><path d="M0 369L13.7 362.5C27.3 356 54.7 343 82 318.3C109.3 293.7 136.7 257.3 163.8 253.5C191 249.7 218 278.3 245.2 283.5C272.3 288.7 299.7 270.3 327 287.7C354.3 305 381.7 358 409 387.3C436.3 416.7 463.7 422.3 491 418.5C518.3 414.7 545.7 401.3 573 384.7C600.3 368 627.7 348 654.8 334.3C682 320.7 709 313.3 736.2 303.7C763.3 294 790.7 282 818 305.2C845.3 328.3 872.7 386.7 886.3 415.8L900 445L900 601L886.3 601C872.7 601 845.3 601 818 601C790.7 601 763.3 601 736.2 601C709 601 682 601 654.8 601C627.7 601 600.3 601 573 601C545.7 601 518.3 601 491 601C463.7 601 436.3 601 409 601C381.7 601 354.3 601 327 601C299.7 601 272.3 601 245.2 601C218 601 191 601 163.8 601C136.7 601 109.3 601 82 601C54.7 601 27.3 601 13.7 601L0 601Z" fill="#36c1f1"></path><path d="M0 346L13.7 357.2C27.3 368.3 54.7 390.7 82 379.2C109.3 367.7 136.7 322.3 163.8 310.5C191 298.7 218 320.3 245.2 338.2C272.3 356 299.7 370 327 388.2C354.3 406.3 381.7 428.7 409 408.3C436.3 388 463.7 325 491 292.8C518.3 260.7 545.7 259.3 573 279.2C600.3 299 627.7 340 654.8 366.7C682 393.3 709 405.7 736.2 402C763.3 398.3 790.7 378.7 818 382C845.3 385.3 872.7 411.7 886.3 424.8L900 438L900 601L886.3 601C872.7 601 845.3 601 818 601C790.7 601 763.3 601 736.2 601C709 601 682 601 654.8 601C627.7 601 600.3 601 573 601C545.7 601 518.3 601 491 601C463.7 601 436.3 601 409 601C381.7 601 354.3 601 327 601C299.7 601 272.3 601 245.2 601C218 601 191 601 163.8 601C136.7 601 109.3 601 82 601C54.7 601 27.3 601 13.7 601L0 601Z" fill="#30c8f0"></path><path d="M0 482L13.7 460.2C27.3 438.3 54.7 394.7 82 371.3C109.3 348 136.7 345 163.8 342.2C191 339.3 218 336.7 245.2 333.7C272.3 330.7 299.7 327.3 327 341.8C354.3 356.3 381.7 388.7 409 416.5C436.3 444.3 463.7 467.7 491 459.8C518.3 452 545.7 413 573 382C600.3 351 627.7 328 654.8 338.8C682 349.7 709 394.3 736.2 416.2C763.3 438 790.7 437 818 443.2C845.3 449.3 872.7 462.7 886.3 469.3L900 476L900 601L886.3 601C872.7 601 845.3 601 818 601C790.7 601 763.3 601 736.2 601C709 601 682 601 654.8 601C627.7 601 600.3 601 573 601C545.7 601 518.3 601 491 601C463.7 601 436.3 601 409 601C381.7 601 354.3 601 327 601C299.7 601 272.3 601 245.2 601C218 601 191 601 163.8 601C136.7 601 109.3 601 82 601C54.7 601 27.3 601 13.7 601L0 601Z" fill="#32cfee"></path><path d="M0 442L13.7 446.3C27.3 450.7 54.7 459.3 82 471C109.3 482.7 136.7 497.3 163.8 480.7C191 464 218 416 245.2 389.2C272.3 362.3 299.7 356.7 327 373.3C354.3 390 381.7 429 409 454.8C436.3 480.7 463.7 493.3 491 491C518.3 488.7 545.7 471.3 573 474C600.3 476.7 627.7 499.3 654.8 491.7C682 484 709 446 736.2 419.2C763.3 392.3 790.7 376.7 818 374.2C845.3 371.7 872.7 382.3 886.3 387.7L900 393L900 601L886.3 601C872.7 601 845.3 601 818 601C790.7 601 763.3 601 736.2 601C709 601 682 601 654.8 601C627.7 601 600.3 601 573 601C545.7 601 518.3 601 491 601C463.7 601 436.3 601 409 601C381.7 601 354.3 601 327 601C299.7 601 272.3 601 245.2 601C218 601 191 601 163.8 601C136.7 601 109.3 601 82 601C54.7 601 27.3 601 13.7 601L0 601Z" fill="#3cd6ea"></path><path d="M0 417L13.7 432.7C27.3 448.3 54.7 479.7 82 489.7C109.3 499.7 136.7 488.3 163.8 483.3C191 478.3 218 479.7 245.2 488.3C272.3 497 299.7 513 327 512.3C354.3 511.7 381.7 494.3 409 487C436.3 479.7 463.7 482.3 491 472.7C518.3 463 545.7 441 573 427.3C600.3 413.7 627.7 408.3 654.8 413C682 417.7 709 432.3 736.2 432.8C763.3 433.3 790.7 419.7 818 413.7C845.3 407.7 872.7 409.3 886.3 410.2L900 411L900 601L886.3 601C872.7 601 845.3 601 818 601C790.7 601 763.3 601 736.2 601C709 601 682 601 654.8 601C627.7 601 600.3 601 573 601C545.7 601 518.3 601 491 601C463.7 601 436.3 601 409 601C381.7 601 354.3 601 327 601C299.7 601 272.3 601 245.2 601C218 601 191 601 163.8 601C136.7 601 109.3 601 82 601C54.7 601 27.3 601 13.7 601L0 601Z" fill="#4adce6"></path><path d="M0 571L13.7 554.8C27.3 538.7 54.7 506.3 82 506.7C109.3 507 136.7 540 163.8 543.5C191 547 218 521 245.2 506.8C272.3 492.7 299.7 490.3 327 492.7C354.3 495 381.7 502 409 512.2C436.3 522.3 463.7 535.7 491 535.2C518.3 534.7 545.7 520.3 573 514.5C600.3 508.7 627.7 511.3 654.8 510.3C682 509.3 709 504.7 736.2 502.8C763.3 501 790.7 502 818 495.3C845.3 488.7 872.7 474.3 886.3 467.2L900 460L900 601L886.3 601C872.7 601 845.3 601 818 601C790.7 601 763.3 601 736.2 601C709 601 682 601 654.8 601C627.7 601 600.3 601 573 601C545.7 601 518.3 601 491 601C463.7 601 436.3 601 409 601C381.7 601 354.3 601 327 601C299.7 601 272.3 601 245.2 601C218 601 191 601 163.8 601C136.7 601 109.3 601 82 601C54.7 601 27.3 601 13.7 601L0 601Z" fill="#5be2e1"></path><path d="M0 558L13.7 560C27.3 562 54.7 566 82 556.3C109.3 546.7 136.7 523.3 163.8 518.8C191 514.3 218 528.7 245.2 531.3C272.3 534 299.7 525 327 521C354.3 517 381.7 518 409 520.7C436.3 523.3 463.7 527.7 491 529.2C518.3 530.7 545.7 529.3 573 524.7C600.3 520 627.7 512 654.8 523C682 534 709 564 736.2 570.5C763.3 577 790.7 560 818 547.8C845.3 535.7 872.7 528.3 886.3 524.7L900 521L900 601L886.3 601C872.7 601 845.3 601 818 601C790.7 601 763.3 601 736.2 601C709 601 682 601 654.8 601C627.7 601 600.3 601 573 601C545.7 601 518.3 601 491 601C463.7 601 436.3 601 409 601C381.7 601 354.3 601 327 601C299.7 601 272.3 601 245.2 601C218 601 191 601 163.8 601C136.7 601 109.3 601 82 601C54.7 601 27.3 601 13.7 601L0 601Z" fill="#6ce8dc"></path></svg>